<?xml version="1.0" standalone="no"?>
<!DOCTYPE svg PUBLIC "-//W3C//DTD SVG 20010904//EN"
 "http://www.w3.org/TR/2001/REC-SVG-20010904/DTD/svg10.dtd">
<svg version="1.0" xmlns="http://www.w3.org/2000/svg"
 width="300.000000pt" height="300.000000pt" viewBox="0 0 300.000000 300.000000"
 preserveAspectRatio="xMidYMid meet">
<metadata>
Created by potrace 1.15, written by Peter Selinger 2001-2017
</metadata>
<g transform="translate(0.000000,300.000000) scale(0.100000,-0.100000)"
fill="#555" stroke="none">
<path d="M1425 2508 c-16 -6 -41 -18 -55 -27 -14 -10 -59 -30 -100 -45 -158
-60 -277 -155 -355 -284 -1 -1 -28 13 -60 32 -64 39 -232 112 -373 163 -115
41 -143 55 -209 104 -30 23 -58 36 -67 33 -28 -11 -51 -93 -51 -184 1 -71 5
-93 27 -135 44 -85 53 -89 192 -96 109 -5 130 -9 216 -44 124 -49 230 -104
230 -120 0 -51 -13 -72 -60 -93 -70 -32 -117 -79 -126 -127 -10 -51 20 -259
41 -292 9 -13 40 -36 70 -50 l55 -27 -33 -14 c-17 -7 -92 -29 -165 -47 -72
-19 -136 -36 -141 -39 -5 -3 -16 5 -25 19 -21 31 -37 31 -116 -1 l-63 -25 -39
38 c-43 41 -122 193 -133 255 -4 21 -13 42 -21 49 -23 19 -29 -15 -28 -156 1
-105 6 -149 26 -225 25 -92 25 -95 7 -108 -30 -21 -23 -50 42 -198 71 -161 82
-177 118 -169 24 5 31 -3 95 -115 37 -66 90 -169 116 -230 26 -60 53 -117 60
-125 13 -16 65 -20 118 -9 24 5 32 13 37 35 8 34 8 34 41 12 24 -15 25 -15 31
5 4 15 13 22 30 22 53 0 223 157 223 205 0 19 -13 31 -62 57 -81 43 -182 143
-242 241 -27 43 -47 79 -45 81 2 1 47 26 100 54 l96 51 6 -59 c10 -116 100
-258 176 -281 30 -9 44 -8 75 5 59 25 73 21 80 -19 4 -20 4 -40 1 -45 -10 -16
15 -93 41 -127 13 -18 54 -46 91 -65 62 -30 75 -33 163 -33 76 0 104 5 143 23
105 48 147 103 147 197 0 84 8 93 62 76 96 -30 144 -9 209 92 43 66 57 106 66
185 3 29 9 51 12 50 104 -51 191 -101 191 -110 0 -23 -100 -164 -155 -218 -30
-30 -85 -73 -123 -95 -37 -23 -68 -49 -70 -58 -8 -39 181 -214 219 -204 15 4
23 -1 31 -19 13 -28 16 -28 42 -9 23 17 36 11 36 -16 0 -25 36 -39 101 -39
l50 0 25 58 c57 128 108 232 162 330 53 95 59 102 83 98 15 -3 33 0 42 7 14
12 147 301 147 321 0 5 -10 20 -21 32 l-22 23 23 88 c38 144 39 412 1 389 -5
-3 -14 -27 -20 -53 -26 -100 -98 -229 -153 -273 l-26 -19 -63 24 c-79 31 -97
31 -111 0 -8 -18 -16 -24 -27 -19 -9 4 -43 13 -76 21 -33 8 -105 28 -159 45
l-100 30 49 26 c27 15 57 38 67 52 23 32 54 239 44 293 -9 47 -68 108 -131
134 -43 17 -55 34 -55 79 0 17 23 31 118 77 170 80 201 89 338 96 73 4 127 11
136 18 8 7 27 36 43 65 37 67 46 177 21 261 -23 79 -42 87 -102 42 -60 -46
-106 -69 -218 -110 -140 -51 -231 -91 -335 -145 -75 -40 -97 -48 -103 -37 -18
34 -91 113 -140 154 -55 46 -155 101 -223 123 -22 7 -62 25 -90 40 -65 36 -84
40 -120 28z m84 -52 c67 -34 152 -114 184 -175 33 -60 37 -120 13 -200 -9 -30
-19 -82 -22 -117 -5 -47 -11 -64 -22 -64 -12 0 -13 9 -9 45 4 25 9 56 13 70 5
19 2 25 -10 25 -12 0 -16 -9 -16 -34 0 -22 -6 -36 -16 -40 -31 -12 -153 -6
-166 7 -10 11 -16 11 -38 0 -53 -27 -135 -3 -146 44 -10 40 -27 26 -18 -14 13
-62 11 -97 -6 -100 -12 -3 -15 8 -16 49 -1 29 -11 93 -23 141 -21 84 -21 91
-6 143 20 68 109 167 192 212 32 17 59 32 61 32 1 0 24 -11 51 -24z m-1056
-131 c230 -85 437 -184 437 -210 0 -25 -14 -21 -78 18 -63 38 -166 87 -392
186 -52 23 -111 55 -130 72 l-35 30 48 -30 c26 -16 94 -46 150 -66z m2186 69
c-16 -19 -92 -58 -224 -114 -113 -48 -280 -130 -336 -165 -36 -23 -49 -23 -49
0 0 19 186 111 365 180 91 35 185 75 208 88 51 31 53 31 36 11z m-1403 -47
c-63 -83 -80 -168 -51 -263 22 -73 20 -78 -27 -91 -24 -7 -51 -15 -60 -18 -15
-6 -18 -2 -18 21 0 27 28 145 45 189 6 14 5 17 -2 10 -20 -18 -61 -151 -74
-234 -7 -48 -17 -81 -24 -81 -9 0 -9 17 -3 62 24 176 81 301 178 392 58 54 71
59 36 13z m506 -35 c78 -83 140 -232 154 -367 8 -77 -11 -92 -21 -17 -13 93
-44 200 -79 271 -20 39 -38 71 -40 71 -2 0 11 -35 29 -77 31 -69 64 -207 54
-217 -2 -3 -30 3 -62 12 -64 19 -65 22 -42 98 29 95 12 178 -52 262 -38 50 1
27 59 -36z m-637 -46 c-46 -70 -88 -182 -106 -289 -11 -65 -13 -69 -51 -88
-22 -11 -42 -18 -44 -16 -8 7 27 159 43 190 8 16 13 31 10 33 -12 13 -77 -183
-77 -233 0 -14 -6 -23 -15 -23 -19 0 -19 11 5 104 31 122 82 209 177 304 45
45 86 82 92 82 5 0 -10 -29 -34 -64z m758 -5 c94 -87 161 -206 191 -338 19
-86 19 -83 3 -83 -8 0 -19 30 -29 78 -14 71 -56 187 -64 179 -2 -2 5 -26 16
-55 18 -47 42 -163 35 -170 -2 -2 -21 6 -44 17 -33 17 -41 27 -46 58 -24 144
-73 272 -134 352 l-26 34 24 -13 c14 -7 47 -33 74 -59z m-81 -396 c134 -15
270 -47 343 -80 54 -24 115 -70 115 -87 0 -6 -8 -4 -18 5 -56 51 -238 107
-433 133 -136 19 -482 21 -614 5 -203 -26 -368 -70 -448 -121 -59 -37 -57 -18
2 27 69 53 261 105 471 126 96 10 476 5 582 -8z m39 -59 c139 -22 225 -44 304
-81 66 -30 125 -81 125 -108 0 -17 -28 -176 -35 -198 -6 -18 -85 -62 -143 -78
-27 -8 -32 -7 -32 8 0 12 14 20 44 29 l45 12 6 55 c4 31 5 59 1 62 -3 4 -6 -2
-7 -13 0 -10 -7 -37 -14 -59 l-14 -40 4 60 4 60 -17 -65 -17 -65 -6 40 c-4 29
-7 33 -9 15 -1 -15 -6 -2 -11 30 -24 145 -121 234 -299 275 -153 35 -491 30
-621 -9 -157 -47 -257 -157 -260 -284 l-1 -37 -13 40 -14 40 4 -55 5 -55 -14
40 c-8 22 -15 51 -15 64 -1 13 -4 22 -7 19 -3 -4 -2 -32 1 -63 7 -51 11 -58
36 -67 16 -5 29 -17 29 -25 0 -17 -40 -11 -105 17 -61 27 -75 48 -91 146 -18
114 -19 107 13 145 63 74 281 137 563 163 95 8 468 -3 561 -18z m-108 -82
c185 -35 285 -124 293 -259 l3 -50 -8 45 c-20 101 -59 153 -152 200 -90 46
-190 62 -389 62 -249 1 -371 -28 -460 -108 -51 -47 -71 -84 -81 -154 l-8 -55
4 63 c6 116 84 200 227 243 125 38 405 45 571 13z m-25 -44 c47 -11 53 -15 48
-34 -2 -11 -16 -106 -31 -211 -14 -104 -28 -201 -31 -214 l-5 -24 -24 24 -25
24 11 148 c6 81 9 155 7 164 -2 10 -14 -45 -27 -120 l-25 -137 -32 31 c-27 26
-43 33 -89 37 -53 4 -56 3 -92 -34 -21 -22 -57 -62 -79 -89 -23 -28 -44 -47
-48 -44 -7 7 -76 407 -76 442 0 18 7 27 26 31 15 4 28 5 30 4 2 -2 14 -67 28
-143 14 -77 23 -115 21 -85 -2 30 -7 96 -11 147 l-6 92 48 4 c84 8 327 0 382
-13z m-522 -251 c50 -240 51 -252 27 -247 -13 2 -27 50 -66 222 -48 209 -49
220 -32 232 10 8 20 12 23 10 2 -3 24 -100 48 -217z m673 202 c11 -7 5 -46
-34 -212 -25 -112 -49 -212 -51 -221 -6 -21 -54 -25 -54 -5 -1 34 105 447 114
447 6 0 17 -4 25 -9z m-766 -244 c31 -106 57 -196 57 -200 0 -5 -10 -7 -21 -5
-16 2 -27 19 -45 73 -13 39 -22 59 -20 45 3 -14 7 -43 11 -65 l6 -40 -25 30
c-36 41 -67 128 -73 202 -5 50 -2 70 17 107 12 25 25 46 29 46 4 0 33 -87 64
-193z m878 111 c10 -38 11 -60 1 -105 -17 -83 -65 -174 -101 -196 -19 -11 -31
-14 -31 -7 0 14 91 352 97 363 9 15 21 -6 34 -55z m-1831 -149 l30 -59 -25 -6
c-20 -5 -25 -12 -25 -38 0 -17 5 -47 10 -67 l10 -36 83 13 c45 7 98 15 117 18
19 3 -13 -14 -72 -37 -72 -28 -108 -47 -108 -57 0 -36 137 -360 152 -360 5 0
56 20 113 44 58 24 105 42 105 40 0 -2 -35 -27 -78 -55 -105 -71 -106 -73 -24
-45 40 14 72 24 72 22 0 -1 -31 -24 -70 -50 l-69 -48 20 -40 c11 -22 19 -42
16 -44 -7 -7 -128 213 -177 324 -102 229 -140 373 -139 524 0 92 1 92 14 55 8
-21 28 -65 45 -98z m2750 57 c0 -196 -102 -491 -269 -776 -60 -102 -81 -128
-41 -50 11 22 20 41 20 44 0 2 -29 25 -65 51 -36 25 -65 47 -65 49 0 2 30 -7
66 -20 36 -13 63 -20 60 -16 -3 5 -42 33 -86 62 -44 29 -79 54 -77 56 2 2 52
-17 110 -43 124 -54 115 -57 163 57 39 93 104 263 104 272 0 4 -5 8 -10 8 -15
0 -201 72 -197 76 2 2 41 -3 88 -11 124 -22 136 -21 143 15 3 17 9 43 12 60 5
25 2 31 -20 40 -14 5 -26 11 -26 14 0 2 16 37 35 77 19 41 35 79 35 86 0 7 5
13 10 13 6 0 10 -28 10 -64z m-1300 -175 c87 -92 99 -99 179 -107 49 -6 67 -3
104 15 25 12 55 37 66 54 11 18 21 28 21 23 0 -5 -9 -23 -20 -42 -40 -64 -146
-91 -243 -62 -39 12 -79 45 -155 131 -24 26 -42 37 -62 37 -28 0 -33 -4 -115
-97 -55 -63 -110 -86 -198 -82 -81 5 -119 24 -151 81 l-20 33 35 -37 c43 -45
74 -58 140 -58 76 0 116 22 199 110 66 70 80 80 110 80 30 0 44 -10 110 -79z
m-664 -15 c32 -103 26 -128 -37 -171 -69 -47 -232 -135 -249 -135 -8 1 3 10
25 22 56 29 205 119 205 123 0 2 -35 -13 -77 -35 -95 -47 -183 -82 -183 -72 0
4 20 18 45 31 25 13 44 25 42 27 -2 2 -25 -3 -52 -12 -61 -18 -80 -13 -40 10
l30 17 -32 -5 c-37 -6 -42 0 -15 20 15 12 14 13 -10 14 -29 0 -38 14 -15 23 6
3 3 6 -9 6 -15 1 -27 15 -44 51 -13 27 -21 52 -19 55 3 2 65 20 139 39 74 19
155 43 180 54 80 36 86 33 116 -62z m1265 50 c52 -19 131 -42 174 -51 43 -8
86 -20 96 -26 18 -9 18 -12 -6 -59 -15 -29 -32 -50 -41 -50 -14 0 -14 -3 -4
-15 11 -13 8 -15 -16 -15 -28 -1 -28 -1 -10 -15 21 -16 18 -18 -29 -16 l-30 1
28 -16 c43 -23 25 -28 -33 -9 -63 21 -75 15 -20 -10 49 -22 79 -52 40 -40 -14
4 -72 29 -130 56 -120 56 -108 42 27 -33 51 -28 91 -53 89 -55 -6 -7 -164 75
-238 123 -83 53 -89 71 -58 168 24 75 35 96 54 96 6 0 54 -15 107 -34z m-483
-518 c22 -30 23 -41 20 -140 -3 -102 -4 -108 -32 -137 -50 -53 -118 -76 -221
-75 -72 0 -99 4 -136 22 -95 47 -121 99 -114 230 2 53 9 79 25 102 22 31 58
60 74 60 6 0 0 -7 -13 -16 -29 -21 -60 -89 -61 -131 0 -38 9 -41 35 -13 10 11
22 20 28 20 5 0 -4 -13 -21 -28 -67 -62 -46 -146 49 -195 68 -34 129 -43 201
-28 97 20 163 81 161 147 -1 27 -10 46 -40 77 l-38 41 38 -28 c20 -15 37 -26
38 -24 14 55 -3 106 -48 154 l-38 39 35 -22 c19 -12 45 -36 58 -55z m-876
-153 c27 -25 72 -57 98 -71 l49 -27 -32 -38 c-18 -21 -60 -62 -94 -89 -49 -41
-66 -50 -86 -45 -20 5 -27 2 -32 -14 -7 -25 -13 -25 -39 -6 -28 21 -33 19 -40
-19 -7 -37 -24 -46 -87 -46 -36 0 -36 1 -71 83 l-35 82 86 31 c47 17 104 42
126 54 50 30 107 72 102 76 -2 2 -25 -5 -53 -15 -27 -10 -65 -22 -84 -26 -31
-6 -28 -2 30 33 36 22 74 50 84 61 11 12 21 21 24 21 2 0 27 -20 54 -45z
m1458 -34 c36 -22 60 -41 53 -41 -6 0 -49 13 -95 29 l-83 30 30 -25 c48 -40
165 -102 235 -125 36 -12 66 -23 67 -24 2 -1 -12 -37 -31 -81 l-33 -79 -41 -3
c-48 -4 -82 11 -82 36 0 9 -4 23 -9 31 -7 11 -13 10 -34 -4 -24 -16 -26 -15
-37 5 -8 15 -17 19 -31 15 -12 -4 -31 1 -47 11 -32 21 -162 144 -162 154 0 4
26 23 59 43 32 20 76 52 97 71 38 34 39 34 59 16 11 -10 49 -36 85 -59z"/>
<path d="M1372 2409 c-97 -64 -153 -149 -151 -226 l2 -38 6 40 c4 22 15 54 24
71 21 41 121 131 172 156 l42 20 43 -27 c58 -36 138 -112 157 -148 8 -16 18
-47 23 -70 9 -41 9 -40 5 12 -6 68 -47 135 -118 189 -100 76 -120 78 -205 21z"/>
<path d="M1306 2258 c-20 -28 -20 -67 -2 -94 12 -17 12 -22 0 -39 -20 -27 -18
-98 4 -117 27 -24 62 -28 98 -13 38 15 57 61 33 76 -21 13 -27 11 -39 -11 -11
-21 -45 -27 -55 -9 -13 20 5 59 30 65 31 8 35 44 5 44 -25 0 -40 29 -29 58 10
27 24 28 42 2 9 -13 20 -18 31 -14 20 8 20 23 0 52 -12 17 -25 22 -59 22 -34
0 -47 -5 -59 -22z"/>
<path d="M1520 2160 c0 -113 -1 -120 -20 -120 -15 0 -20 -7 -20 -25 0 -24 2
-25 71 -25 67 0 70 1 67 23 -2 14 -11 23 -25 25 -22 3 -23 8 -23 83 0 72 9 96
25 69 11 -17 25 -11 25 11 0 26 -55 79 -81 79 -18 0 -19 -9 -19 -120z"/>
</g>
</svg>
